<?xml version="1.0" encoding="utf-8" standalone="no"?>
<!DOCTYPE svg PUBLIC "-//W3C//DTD SVG 1.1//EN"
  "http://www.w3.org/Graphics/SVG/1.1/DTD/svg11.dtd">
<!-- Created with matplotlib (https://matplotlib.org/) -->
<svg height="345.6pt" version="1.1" viewBox="0 0 460.8 345.6" width="460.8pt" xmlns="http://www.w3.org/2000/svg" xmlns:xlink="http://www.w3.org/1999/xlink">
 <metadata>
  <rdf:RDF xmlns:cc="http://creativecommons.org/ns#" xmlns:dc="http://purl.org/dc/elements/1.1/" xmlns:rdf="http://www.w3.org/1999/02/22-rdf-syntax-ns#">
   <cc:Work>
    <dc:type rdf:resource="http://purl.org/dc/dcmitype/StillImage"/>
    <dc:date>2020-12-05T22:12:09.123095</dc:date>
    <dc:format>image/svg+xml</dc:format>
    <dc:creator>
     <cc:Agent>
      <dc:title>Matplotlib v3.3.3, https://matplotlib.org/</dc:title>
     </cc:Agent>
    </dc:creator>
   </cc:Work>
  </rdf:RDF>
 </metadata>
 <defs>
  <style type="text/css">*{stroke-linecap:butt;stroke-linejoin:round;}</style>
 </defs>
 <g id="figure_1">
  <g id="patch_1">
   <path d="M 0 345.6 
L 460.8 345.6 
L 460.8 0 
L 0 0 
z
" style="fill:#ffffff;"/>
  </g>
  <g id="axes_1">
   <g id="patch_2">
    <path d="M 57.6 307.584 
L 414.72 307.584 
L 414.72 41.472 
L 57.6 41.472 
z
" style="fill:#ffffff;"/>
   </g>
   <g id="matplotlib.axis_1">
    <g id="xtick_1">
     <g id="line2d_1">
      <defs>
       <path d="M 0 0 
L 0 3.5 
" id="m7a1edddec1" style="stroke:#000000;stroke-width:0.8;"/>
      </defs>
      <g>
       <use style="stroke:#000000;stroke-width:0.8;" x="106.298182" xlink:href="#m7a1edddec1" y="307.584"/>
      </g>
     </g>
     <g id="text_1">
      <!-- −4 -->
      <g transform="translate(98.927088 322.182437)scale(0.1 -0.1)">
       <defs>
        <path d="M 10.59375 35.5 
L 73.1875 35.5 
L 73.1875 27.203125 
L 10.59375 27.203125 
z
" id="DejaVuSans-8722"/>
        <path d="M 37.796875 64.3125 
L 12.890625 25.390625 
L 37.796875 25.390625 
z
M 35.203125 72.90625 
L 47.609375 72.90625 
L 47.609375 25.390625 
L 58.015625 25.390625 
L 58.015625 17.1875 
L 47.609375 17.1875 
L 47.609375 0 
L 37.796875 0 
L 37.796875 17.1875 
L 4.890625 17.1875 
L 4.890625 26.703125 
z
" id="DejaVuSans-52"/>
       </defs>
       <use xlink:href="#DejaVuSans-8722"/>
       <use x="83.789062" xlink:href="#DejaVuSans-52"/>
      </g>
     </g>
    </g>
    <g id="xtick_2">
     <g id="line2d_2">
      <g>
       <use style="stroke:#000000;stroke-width:0.8;" x="171.229091" xlink:href="#m7a1edddec1" y="307.584"/>
      </g>
     </g>
     <g id="text_2">
      <!-- −2 -->
      <g transform="translate(163.857997 322.182437)scale(0.1 -0.1)">
       <defs>
        <path d="M 19.1875 8.296875 
L 53.609375 8.296875 
L 53.609375 0 
L 7.328125 0 
L 7.328125 8.296875 
Q 12.9375 14.109375 22.625 23.890625 
Q 32.328125 33.6875 34.8125 36.53125 
Q 39.546875 41.84375 41.421875 45.53125 
Q 43.3125 49.21875 43.3125 52.78125 
Q 43.3125 58.59375 39.234375 62.25 
Q 35.15625 65.921875 28.609375 65.921875 
Q 23.96875 65.921875 18.8125 64.3125 
Q 13.671875 62.703125 7.8125 59.421875 
L 7.8125 69.390625 
Q 13.765625 71.78125 18.9375 73 
Q 24.125 74.21875 28.421875 74.21875 
Q 39.75 74.21875 46.484375 68.546875 
Q 53.21875 62.890625 53.21875 53.421875 
Q 53.21875 48.921875 51.53125 44.890625 
Q 49.859375 40.875 45.40625 35.40625 
Q 44.1875 33.984375 37.640625 27.21875 
Q 31.109375 20.453125 19.1875 8.296875 
z
" id="DejaVuSans-50"/>
       </defs>
       <use xlink:href="#DejaVuSans-8722"/>
       <use x="83.789062" xlink:href="#DejaVuSans-50"/>
      </g>
     </g>
    </g>
    <g id="xtick_3">
     <g id="line2d_3">
      <g>
       <use style="stroke:#000000;stroke-width:0.8;" x="236.16" xlink:href="#m7a1edddec1" y="307.584"/>
      </g>
     </g>
     <g id="text_3">
      <!-- 0 -->
      <g transform="translate(232.97875 322.182437)scale(0.1 -0.1)">
       <defs>
        <path d="M 31.78125 66.40625 
Q 24.171875 66.40625 20.328125 58.90625 
Q 16.5 51.421875 16.5 36.375 
Q 16.5 21.390625 20.328125 13.890625 
Q 24.171875 6.390625 31.78125 6.390625 
Q 39.453125 6.390625 43.28125 13.890625 
Q 47.125 21.390625 47.125 36.375 
Q 47.125 51.421875 43.28125 58.90625 
Q 39.453125 66.40625 31.78125 66.40625 
z
M 31.78125 74.21875 
Q 44.046875 74.21875 50.515625 64.515625 
Q 56.984375 54.828125 56.984375 36.375 
Q 56.984375 17.96875 50.515625 8.265625 
Q 44.046875 -1.421875 31.78125 -1.421875 
Q 19.53125 -1.421875 13.0625 8.265625 
Q 6.59375 17.96875 6.59375 36.375 
Q 6.59375 54.828125 13.0625 64.515625 
Q 19.53125 74.21875 31.78125 74.21875 
z
" id="DejaVuSans-48"/>
       </defs>
       <use xlink:href="#DejaVuSans-48"/>
      </g>
     </g>
    </g>
    <g id="xtick_4">
     <g id="line2d_4">
      <g>
       <use style="stroke:#000000;stroke-width:0.8;" x="301.090909" xlink:href="#m7a1edddec1" y="307.584"/>
      </g>
     </g>
     <g id="text_4">
      <!-- 2 -->
      <g transform="translate(297.909659 322.182437)scale(0.1 -0.1)">
       <use xlink:href="#DejaVuSans-50"/>
      </g>
     </g>
    </g>
    <g id="xtick_5">
     <g id="line2d_5">
      <g>
       <use style="stroke:#000000;stroke-width:0.8;" x="366.021818" xlink:href="#m7a1edddec1" y="307.584"/>
      </g>
     </g>
     <g id="text_5">
      <!-- 4 -->
      <g transform="translate(362.840568 322.182437)scale(0.1 -0.1)">
       <use xlink:href="#DejaVuSans-52"/>
      </g>
     </g>
    </g>
   </g>
   <g id="matplotlib.axis_2">
    <g id="ytick_1">
     <g id="line2d_6">
      <defs>
       <path d="M 0 0 
L -3.5 0 
" id="mab1a683fbd" style="stroke:#000000;stroke-width:0.8;"/>
      </defs>
      <g>
       <use style="stroke:#000000;stroke-width:0.8;" x="57.6" xlink:href="#mab1a683fbd" y="275.626499"/>
      </g>
     </g>
     <g id="text_6">
      <!-- 0.0 -->
      <g transform="translate(34.696875 279.425718)scale(0.1 -0.1)">
       <defs>
        <path d="M 10.6875 12.40625 
L 21 12.40625 
L 21 0 
L 10.6875 0 
z
" id="DejaVuSans-46"/>
       </defs>
       <use xlink:href="#DejaVuSans-48"/>
       <use x="63.623047" xlink:href="#DejaVuSans-46"/>
       <use x="95.410156" xlink:href="#DejaVuSans-48"/>
      </g>
     </g>
    </g>
    <g id="ytick_2">
     <g id="line2d_7">
      <g>
       <use style="stroke:#000000;stroke-width:0.8;" x="57.6" xlink:href="#mab1a683fbd" y="223.758863"/>
      </g>
     </g>
     <g id="text_7">
      <!-- 0.5 -->
      <g transform="translate(34.696875 227.558082)scale(0.1 -0.1)">
       <defs>
        <path d="M 10.796875 72.90625 
L 49.515625 72.90625 
L 49.515625 64.59375 
L 19.828125 64.59375 
L 19.828125 46.734375 
Q 21.96875 47.46875 24.109375 47.828125 
Q 26.265625 48.1875 28.421875 48.1875 
Q 40.625 48.1875 47.75 41.5 
Q 54.890625 34.8125 54.890625 23.390625 
Q 54.890625 11.625 47.5625 5.09375 
Q 40.234375 -1.421875 26.90625 -1.421875 
Q 22.3125 -1.421875 17.546875 -0.640625 
Q 12.796875 0.140625 7.71875 1.703125 
L 7.71875 11.625 
Q 12.109375 9.234375 16.796875 8.0625 
Q 21.484375 6.890625 26.703125 6.890625 
Q 35.15625 6.890625 40.078125 11.328125 
Q 45.015625 15.765625 45.015625 23.390625 
Q 45.015625 31 40.078125 35.4375 
Q 35.15625 39.890625 26.703125 39.890625 
Q 22.75 39.890625 18.8125 39.015625 
Q 14.890625 38.140625 10.796875 36.28125 
z
" id="DejaVuSans-53"/>
       </defs>
       <use xlink:href="#DejaVuSans-48"/>
       <use x="63.623047" xlink:href="#DejaVuSans-46"/>
       <use x="95.410156" xlink:href="#DejaVuSans-53"/>
      </g>
     </g>
    </g>
    <g id="ytick_3">
     <g id="line2d_8">
      <g>
       <use style="stroke:#000000;stroke-width:0.8;" x="57.6" xlink:href="#mab1a683fbd" y="171.891227"/>
      </g>
     </g>
     <g id="text_8">
      <!-- 1.0 -->
      <g transform="translate(34.696875 175.690446)scale(0.1 -0.1)">
       <defs>
        <path d="M 12.40625 8.296875 
L 28.515625 8.296875 
L 28.515625 63.921875 
L 10.984375 60.40625 
L 10.984375 69.390625 
L 28.421875 72.90625 
L 38.28125 72.90625 
L 38.28125 8.296875 
L 54.390625 8.296875 
L 54.390625 0 
L 12.40625 0 
z
" id="DejaVuSans-49"/>
       </defs>
       <use xlink:href="#DejaVuSans-49"/>
       <use x="63.623047" xlink:href="#DejaVuSans-46"/>
       <use x="95.410156" xlink:href="#DejaVuSans-48"/>
      </g>
     </g>
    </g>
    <g id="ytick_4">
     <g id="line2d_9">
      <g>
       <use style="stroke:#000000;stroke-width:0.8;" x="57.6" xlink:href="#mab1a683fbd" y="120.023591"/>
      </g>
     </g>
     <g id="text_9">
      <!-- 1.5 -->
      <g transform="translate(34.696875 123.82281)scale(0.1 -0.1)">
       <use xlink:href="#DejaVuSans-49"/>
       <use x="63.623047" xlink:href="#DejaVuSans-46"/>
       <use x="95.410156" xlink:href="#DejaVuSans-53"/>
      </g>
     </g>
    </g>
    <g id="ytick_5">
     <g id="line2d_10">
      <g>
       <use style="stroke:#000000;stroke-width:0.8;" x="57.6" xlink:href="#mab1a683fbd" y="68.155955"/>
      </g>
     </g>
     <g id="text_10">
      <!-- 2.0 -->
      <g transform="translate(34.696875 71.955173)scale(0.1 -0.1)">
       <use xlink:href="#DejaVuSans-50"/>
       <use x="63.623047" xlink:href="#DejaVuSans-46"/>
       <use x="95.410156" xlink:href="#DejaVuSans-48"/>
      </g>
     </g>
    </g>
   </g>
   <g id="line2d_11">
    <path clip-path="url(#pef64ae08fb)" d="M 73.832727 271.636681 
L 75.997091 127.184943 
L 78.161455 64.43182 
L 80.325818 53.568 
L 82.490182 73.126712 
L 84.654545 108.095954 
L 88.983273 187.575889 
L 91.147636 221.957038 
L 93.312 249.723347 
L 95.476364 270.381457 
L 97.640727 284.284774 
L 99.805091 292.286775 
L 101.969455 295.488 
L 104.133818 295.057698 
L 106.298182 292.11411 
L 108.462545 287.650015 
L 112.791273 277.287716 
L 114.955636 272.503726 
L 117.12 268.444826 
L 119.284364 265.273451 
L 121.448727 263.035668 
L 123.613091 261.687739 
L 125.777455 261.12179 
L 127.941818 261.189265 
L 130.106182 261.721327 
L 132.270545 262.545743 
L 136.599273 264.441561 
L 138.763636 265.252972 
L 140.928 265.846419 
L 143.092364 266.163915 
L 145.256727 266.176132 
L 147.421091 265.879504 
L 149.585455 265.292171 
L 151.749818 264.449198 
L 153.914182 263.397453 
L 158.242909 260.88361 
L 164.736 256.857293 
L 169.064727 254.423325 
L 173.393455 252.283343 
L 179.886545 249.272428 
L 182.050909 248.167162 
L 184.215273 246.931284 
L 186.379636 245.515395 
L 188.544 243.872911 
L 190.708364 241.962641 
L 192.872727 239.751113 
L 195.037091 237.214567 
L 197.201455 234.340545 
L 199.365818 231.129018 
L 201.530182 227.593035 
L 203.694545 223.758863 
L 208.023273 215.364511 
L 218.845091 193.182456 
L 221.009455 189.177997 
L 223.173818 185.51294 
L 225.338182 182.264754 
L 227.502545 179.503436 
L 229.666909 177.289392 
L 231.831273 175.671614 
L 233.995636 174.686196 
L 236.16 174.355243 
L 238.324364 174.686196 
L 240.488727 175.671614 
L 242.653091 177.289392 
L 244.817455 179.503436 
L 246.981818 182.264754 
L 249.146182 185.51294 
L 251.310545 189.177997 
L 253.474909 193.182456 
L 257.803636 201.876467 
L 264.296727 215.364511 
L 268.625455 223.758863 
L 270.789818 227.593035 
L 272.954182 231.129018 
L 275.118545 234.340545 
L 277.282909 237.214567 
L 279.447273 239.751113 
L 281.611636 241.962641 
L 283.776 243.872911 
L 285.940364 245.515395 
L 288.104727 246.931284 
L 290.269091 248.167162 
L 294.597818 250.296566 
L 301.090909 253.321084 
L 305.419636 255.602218 
L 309.748364 258.175103 
L 316.241455 262.190474 
L 318.405818 263.397453 
L 320.570182 264.449198 
L 322.734545 265.292171 
L 324.898909 265.879504 
L 327.063273 266.176132 
L 329.227636 266.163915 
L 331.392 265.846419 
L 333.556364 265.252972 
L 335.720727 264.441561 
L 342.213818 261.721327 
L 344.378182 261.189265 
L 346.542545 261.12179 
L 348.706909 261.687739 
L 350.871273 263.035668 
L 353.035636 265.273451 
L 355.2 268.444826 
L 357.364364 272.503726 
L 359.528727 277.287716 
L 363.857455 287.650015 
L 366.021818 292.11411 
L 368.186182 295.057698 
L 370.350545 295.488 
L 372.514909 292.286775 
L 374.679273 284.284774 
L 376.843636 270.381457 
L 379.008 249.723347 
L 381.172364 221.957038 
L 383.336727 187.575889 
L 387.665455 108.095954 
L 389.829818 73.126712 
L 391.994182 53.568 
L 394.158545 64.43182 
L 396.322909 127.184943 
L 398.487273 271.636681 
L 398.487273 271.636681 
" style="fill:none;stroke:#1f77b4;stroke-linecap:square;stroke-width:1.5;"/>
   </g>
   <g id="line2d_12">
    <path clip-path="url(#pef64ae08fb)" d="M 73.832727 271.636681 
L 88.983273 270.813046 
L 101.969455 269.890339 
L 112.791273 268.907893 
L 121.448727 267.933541 
L 130.106182 266.73829 
L 136.599273 265.656215 
L 143.092364 264.372673 
L 149.585455 262.837219 
L 153.914182 261.641816 
L 158.242909 260.281045 
L 162.571636 258.725387 
L 166.900364 256.9392 
L 171.229091 254.879445 
L 175.557818 252.494253 
L 179.886545 249.721464 
L 184.215273 246.487378 
L 186.379636 244.671013 
L 188.544 242.706279 
L 190.708364 240.580799 
L 192.872727 238.281801 
L 195.037091 235.796403 
L 197.201455 233.112043 
L 199.365818 230.21709 
L 201.530182 227.101684 
L 203.694545 223.758863 
L 205.858909 220.186033 
L 210.187636 212.373284 
L 214.516364 203.809772 
L 223.173818 186.19954 
L 225.338182 182.264754 
L 227.502545 178.778216 
L 229.666909 175.881045 
L 231.831273 173.703197 
L 233.995636 172.350233 
L 236.16 171.891227 
L 238.324364 172.350233 
L 240.488727 173.703197 
L 242.653091 175.881045 
L 244.817455 178.778216 
L 246.981818 182.264754 
L 249.146182 186.19954 
L 253.474909 194.863744 
L 259.968 208.168591 
L 264.296727 216.386813 
L 266.461091 220.186033 
L 268.625455 223.758863 
L 270.789818 227.101684 
L 272.954182 230.21709 
L 275.118545 233.112043 
L 277.282909 235.796403 
L 279.447273 238.281801 
L 281.611636 240.580799 
L 283.776 242.706279 
L 288.104727 246.487378 
L 292.433455 249.721464 
L 296.762182 252.494253 
L 301.090909 254.879445 
L 305.419636 256.9392 
L 309.748364 258.725387 
L 314.077091 260.281045 
L 318.405818 261.641816 
L 324.898909 263.38073 
L 331.392 264.825742 
L 337.885091 266.037166 
L 346.542545 267.367321 
L 355.2 268.444826 
L 366.021818 269.524424 
L 376.843636 270.381457 
L 389.829818 271.19421 
L 398.487273 271.636681 
L 398.487273 271.636681 
" style="fill:none;stroke:#ff7f0e;stroke-linecap:square;stroke-width:1.5;"/>
   </g>
   <g id="patch_3">
    <path d="M 57.6 307.584 
L 57.6 41.472 
" style="fill:none;stroke:#000000;stroke-linecap:square;stroke-linejoin:miter;stroke-width:0.8;"/>
   </g>
   <g id="patch_4">
    <path d="M 414.72 307.584 
L 414.72 41.472 
" style="fill:none;stroke:#000000;stroke-linecap:square;stroke-linejoin:miter;stroke-width:0.8;"/>
   </g>
   <g id="patch_5">
    <path d="M 57.6 307.584 
L 414.72 307.584 
" style="fill:none;stroke:#000000;stroke-linecap:square;stroke-linejoin:miter;stroke-width:0.8;"/>
   </g>
   <g id="patch_6">
    <path d="M 57.6 41.472 
L 414.72 41.472 
" style="fill:none;stroke:#000000;stroke-linecap:square;stroke-linejoin:miter;stroke-width:0.8;"/>
   </g>
  </g>
 </g>
 <defs>
  <clipPath id="pef64ae08fb">
   <rect height="266.112" width="357.12" x="57.6" y="41.472"/>
  </clipPath>
 </defs>
</svg>
