<?xml version="1.0" encoding="utf-8" standalone="no"?>
<!DOCTYPE svg PUBLIC "-//W3C//DTD SVG 1.1//EN"
  "http://www.w3.org/Graphics/SVG/1.1/DTD/svg11.dtd">
<!-- Created with matplotlib (https://matplotlib.org/) -->
<svg height="345.6pt" version="1.1" viewBox="0 0 460.8 345.6" width="460.8pt" xmlns="http://www.w3.org/2000/svg" xmlns:xlink="http://www.w3.org/1999/xlink">
 <metadata>
  <rdf:RDF xmlns:cc="http://creativecommons.org/ns#" xmlns:dc="http://purl.org/dc/elements/1.1/" xmlns:rdf="http://www.w3.org/1999/02/22-rdf-syntax-ns#">
   <cc:Work>
    <dc:type rdf:resource="http://purl.org/dc/dcmitype/StillImage"/>
    <dc:date>2020-12-05T22:12:38.557377</dc:date>
    <dc:format>image/svg+xml</dc:format>
    <dc:creator>
     <cc:Agent>
      <dc:title>Matplotlib v3.3.3, https://matplotlib.org/</dc:title>
     </cc:Agent>
    </dc:creator>
   </cc:Work>
  </rdf:RDF>
 </metadata>
 <defs>
  <style type="text/css">*{stroke-linecap:butt;stroke-linejoin:round;}</style>
 </defs>
 <g id="figure_1">
  <g id="patch_1">
   <path d="M 0 345.6 
L 460.8 345.6 
L 460.8 0 
L 0 0 
z
" style="fill:#ffffff;"/>
  </g>
  <g id="axes_1">
   <g id="patch_2">
    <path d="M 57.6 307.584 
L 414.72 307.584 
L 414.72 41.472 
L 57.6 41.472 
z
" style="fill:#ffffff;"/>
   </g>
   <g id="matplotlib.axis_1">
    <g id="xtick_1">
     <g id="line2d_1">
      <defs>
       <path d="M 0 0 
L 0 3.5 
" id="mfa8556bb7c" style="stroke:#000000;stroke-width:0.8;"/>
      </defs>
      <g>
       <use style="stroke:#000000;stroke-width:0.8;" x="106.298182" xlink:href="#mfa8556bb7c" y="307.584"/>
      </g>
     </g>
     <g id="text_1">
      <!-- −4 -->
      <g transform="translate(98.927088 322.182437)scale(0.1 -0.1)">
       <defs>
        <path d="M 10.59375 35.5 
L 73.1875 35.5 
L 73.1875 27.203125 
L 10.59375 27.203125 
z
" id="DejaVuSans-8722"/>
        <path d="M 37.796875 64.3125 
L 12.890625 25.390625 
L 37.796875 25.390625 
z
M 35.203125 72.90625 
L 47.609375 72.90625 
L 47.609375 25.390625 
L 58.015625 25.390625 
L 58.015625 17.1875 
L 47.609375 17.1875 
L 47.609375 0 
L 37.796875 0 
L 37.796875 17.1875 
L 4.890625 17.1875 
L 4.890625 26.703125 
z
" id="DejaVuSans-52"/>
       </defs>
       <use xlink:href="#DejaVuSans-8722"/>
       <use x="83.789062" xlink:href="#DejaVuSans-52"/>
      </g>
     </g>
    </g>
    <g id="xtick_2">
     <g id="line2d_2">
      <g>
       <use style="stroke:#000000;stroke-width:0.8;" x="171.229091" xlink:href="#mfa8556bb7c" y="307.584"/>
      </g>
     </g>
     <g id="text_2">
      <!-- −2 -->
      <g transform="translate(163.857997 322.182437)scale(0.1 -0.1)">
       <defs>
        <path d="M 19.1875 8.296875 
L 53.609375 8.296875 
L 53.609375 0 
L 7.328125 0 
L 7.328125 8.296875 
Q 12.9375 14.109375 22.625 23.890625 
Q 32.328125 33.6875 34.8125 36.53125 
Q 39.546875 41.84375 41.421875 45.53125 
Q 43.3125 49.21875 43.3125 52.78125 
Q 43.3125 58.59375 39.234375 62.25 
Q 35.15625 65.921875 28.609375 65.921875 
Q 23.96875 65.921875 18.8125 64.3125 
Q 13.671875 62.703125 7.8125 59.421875 
L 7.8125 69.390625 
Q 13.765625 71.78125 18.9375 73 
Q 24.125 74.21875 28.421875 74.21875 
Q 39.75 74.21875 46.484375 68.546875 
Q 53.21875 62.890625 53.21875 53.421875 
Q 53.21875 48.921875 51.53125 44.890625 
Q 49.859375 40.875 45.40625 35.40625 
Q 44.1875 33.984375 37.640625 27.21875 
Q 31.109375 20.453125 19.1875 8.296875 
z
" id="DejaVuSans-50"/>
       </defs>
       <use xlink:href="#DejaVuSans-8722"/>
       <use x="83.789062" xlink:href="#DejaVuSans-50"/>
      </g>
     </g>
    </g>
    <g id="xtick_3">
     <g id="line2d_3">
      <g>
       <use style="stroke:#000000;stroke-width:0.8;" x="236.16" xlink:href="#mfa8556bb7c" y="307.584"/>
      </g>
     </g>
     <g id="text_3">
      <!-- 0 -->
      <g transform="translate(232.97875 322.182437)scale(0.1 -0.1)">
       <defs>
        <path d="M 31.78125 66.40625 
Q 24.171875 66.40625 20.328125 58.90625 
Q 16.5 51.421875 16.5 36.375 
Q 16.5 21.390625 20.328125 13.890625 
Q 24.171875 6.390625 31.78125 6.390625 
Q 39.453125 6.390625 43.28125 13.890625 
Q 47.125 21.390625 47.125 36.375 
Q 47.125 51.421875 43.28125 58.90625 
Q 39.453125 66.40625 31.78125 66.40625 
z
M 31.78125 74.21875 
Q 44.046875 74.21875 50.515625 64.515625 
Q 56.984375 54.828125 56.984375 36.375 
Q 56.984375 17.96875 50.515625 8.265625 
Q 44.046875 -1.421875 31.78125 -1.421875 
Q 19.53125 -1.421875 13.0625 8.265625 
Q 6.59375 17.96875 6.59375 36.375 
Q 6.59375 54.828125 13.0625 64.515625 
Q 19.53125 74.21875 31.78125 74.21875 
z
" id="DejaVuSans-48"/>
       </defs>
       <use xlink:href="#DejaVuSans-48"/>
      </g>
     </g>
    </g>
    <g id="xtick_4">
     <g id="line2d_4">
      <g>
       <use style="stroke:#000000;stroke-width:0.8;" x="301.090909" xlink:href="#mfa8556bb7c" y="307.584"/>
      </g>
     </g>
     <g id="text_4">
      <!-- 2 -->
      <g transform="translate(297.909659 322.182437)scale(0.1 -0.1)">
       <use xlink:href="#DejaVuSans-50"/>
      </g>
     </g>
    </g>
    <g id="xtick_5">
     <g id="line2d_5">
      <g>
       <use style="stroke:#000000;stroke-width:0.8;" x="366.021818" xlink:href="#mfa8556bb7c" y="307.584"/>
      </g>
     </g>
     <g id="text_5">
      <!-- 4 -->
      <g transform="translate(362.840568 322.182437)scale(0.1 -0.1)">
       <use xlink:href="#DejaVuSans-52"/>
      </g>
     </g>
    </g>
   </g>
   <g id="matplotlib.axis_2">
    <g id="ytick_1">
     <g id="line2d_6">
      <defs>
       <path d="M 0 0 
L -3.5 0 
" id="mb4252c1ee0" style="stroke:#000000;stroke-width:0.8;"/>
      </defs>
      <g>
       <use style="stroke:#000000;stroke-width:0.8;" x="57.6" xlink:href="#mb4252c1ee0" y="267.662402"/>
      </g>
     </g>
     <g id="text_6">
      <!-- 0.0 -->
      <g transform="translate(34.696875 271.461621)scale(0.1 -0.1)">
       <defs>
        <path d="M 10.6875 12.40625 
L 21 12.40625 
L 21 0 
L 10.6875 0 
z
" id="DejaVuSans-46"/>
       </defs>
       <use xlink:href="#DejaVuSans-48"/>
       <use x="63.623047" xlink:href="#DejaVuSans-46"/>
       <use x="95.410156" xlink:href="#DejaVuSans-48"/>
      </g>
     </g>
    </g>
    <g id="ytick_2">
     <g id="line2d_7">
      <g>
       <use style="stroke:#000000;stroke-width:0.8;" x="57.6" xlink:href="#mb4252c1ee0" y="213.01726"/>
      </g>
     </g>
     <g id="text_7">
      <!-- 0.5 -->
      <g transform="translate(34.696875 216.816479)scale(0.1 -0.1)">
       <defs>
        <path d="M 10.796875 72.90625 
L 49.515625 72.90625 
L 49.515625 64.59375 
L 19.828125 64.59375 
L 19.828125 46.734375 
Q 21.96875 47.46875 24.109375 47.828125 
Q 26.265625 48.1875 28.421875 48.1875 
Q 40.625 48.1875 47.75 41.5 
Q 54.890625 34.8125 54.890625 23.390625 
Q 54.890625 11.625 47.5625 5.09375 
Q 40.234375 -1.421875 26.90625 -1.421875 
Q 22.3125 -1.421875 17.546875 -0.640625 
Q 12.796875 0.140625 7.71875 1.703125 
L 7.71875 11.625 
Q 12.109375 9.234375 16.796875 8.0625 
Q 21.484375 6.890625 26.703125 6.890625 
Q 35.15625 6.890625 40.078125 11.328125 
Q 45.015625 15.765625 45.015625 23.390625 
Q 45.015625 31 40.078125 35.4375 
Q 35.15625 39.890625 26.703125 39.890625 
Q 22.75 39.890625 18.8125 39.015625 
Q 14.890625 38.140625 10.796875 36.28125 
z
" id="DejaVuSans-53"/>
       </defs>
       <use xlink:href="#DejaVuSans-48"/>
       <use x="63.623047" xlink:href="#DejaVuSans-46"/>
       <use x="95.410156" xlink:href="#DejaVuSans-53"/>
      </g>
     </g>
    </g>
    <g id="ytick_3">
     <g id="line2d_8">
      <g>
       <use style="stroke:#000000;stroke-width:0.8;" x="57.6" xlink:href="#mb4252c1ee0" y="158.372119"/>
      </g>
     </g>
     <g id="text_8">
      <!-- 1.0 -->
      <g transform="translate(34.696875 162.171337)scale(0.1 -0.1)">
       <defs>
        <path d="M 12.40625 8.296875 
L 28.515625 8.296875 
L 28.515625 63.921875 
L 10.984375 60.40625 
L 10.984375 69.390625 
L 28.421875 72.90625 
L 38.28125 72.90625 
L 38.28125 8.296875 
L 54.390625 8.296875 
L 54.390625 0 
L 12.40625 0 
z
" id="DejaVuSans-49"/>
       </defs>
       <use xlink:href="#DejaVuSans-49"/>
       <use x="63.623047" xlink:href="#DejaVuSans-46"/>
       <use x="95.410156" xlink:href="#DejaVuSans-48"/>
      </g>
     </g>
    </g>
    <g id="ytick_4">
     <g id="line2d_9">
      <g>
       <use style="stroke:#000000;stroke-width:0.8;" x="57.6" xlink:href="#mb4252c1ee0" y="103.726977"/>
      </g>
     </g>
     <g id="text_9">
      <!-- 1.5 -->
      <g transform="translate(34.696875 107.526196)scale(0.1 -0.1)">
       <use xlink:href="#DejaVuSans-49"/>
       <use x="63.623047" xlink:href="#DejaVuSans-46"/>
       <use x="95.410156" xlink:href="#DejaVuSans-53"/>
      </g>
     </g>
    </g>
    <g id="ytick_5">
     <g id="line2d_10">
      <g>
       <use style="stroke:#000000;stroke-width:0.8;" x="57.6" xlink:href="#mb4252c1ee0" y="49.081835"/>
      </g>
     </g>
     <g id="text_10">
      <!-- 2.0 -->
      <g transform="translate(34.696875 52.881054)scale(0.1 -0.1)">
       <use xlink:href="#DejaVuSans-50"/>
       <use x="63.623047" xlink:href="#DejaVuSans-46"/>
       <use x="95.410156" xlink:href="#DejaVuSans-48"/>
      </g>
     </g>
    </g>
   </g>
   <g id="line2d_11">
    <path clip-path="url(#p917e01eba0)" d="M 73.832727 263.45893 
L 77.079273 133.200757 
L 80.325818 70.460604 
L 83.572364 53.568 
L 86.818909 65.929439 
L 90.065455 95.123538 
L 93.312 132.119119 
L 96.558545 170.603762 
L 99.805091 206.41127 
L 103.051636 237.037342 
L 106.298182 261.233562 
L 109.544727 278.670585 
L 112.791273 289.662139 
L 116.037818 294.942152 
L 119.284364 295.488 
L 122.530909 292.383459 
L 125.777455 286.715573 
L 129.024 279.500198 
L 132.270545 271.631481 
L 135.517091 263.851087 
L 138.763636 256.733374 
L 142.010182 250.68322 
L 145.256727 245.943558 
L 148.503273 242.610082 
L 151.749818 240.650921 
L 154.996364 239.929396 
L 158.242909 240.228293 
L 161.489455 241.274325 
L 164.736 242.761736 
L 167.982545 244.374193 
L 171.229091 245.804345 
L 174.475636 246.770592 
L 177.722182 247.030761 
L 180.968727 246.392564 
L 184.215273 244.720787 
L 187.461818 241.941306 
L 190.708364 238.042101 
L 193.954909 233.071501 
L 197.201455 227.133985 
L 200.448 220.383867 
L 203.694545 213.01726 
L 206.941091 205.262722 
L 210.187636 197.370984 
L 213.434182 189.604193 
L 216.680727 182.225037 
L 219.927273 175.486165 
L 223.173818 169.620237 
L 226.420364 164.830923 
L 229.666909 161.285151 
L 232.913455 159.106808 
L 236.16 158.372119 
L 239.406545 159.106808 
L 242.653091 161.285151 
L 245.899636 164.830923 
L 249.146182 169.620237 
L 252.392727 175.486165 
L 255.639273 182.225037 
L 258.885818 189.604193 
L 262.132364 197.370984 
L 265.378909 205.262722 
L 268.625455 213.01726 
L 271.872 220.383867 
L 275.118545 227.133985 
L 278.365091 233.071501 
L 281.611636 238.042101 
L 284.858182 241.941306 
L 288.104727 244.720787 
L 291.351273 246.392564 
L 294.597818 247.030761 
L 297.844364 246.770592 
L 301.090909 245.804345 
L 304.337455 244.374193 
L 307.584 242.761736 
L 310.830545 241.274325 
L 314.077091 240.228293 
L 317.323636 239.929396 
L 320.570182 240.650921 
L 323.816727 242.610082 
L 327.063273 245.943558 
L 330.309818 250.68322 
L 333.556364 256.733374 
L 336.802909 263.851087 
L 340.049455 271.631481 
L 343.296 279.500198 
L 346.542545 286.715573 
L 349.789091 292.383459 
L 353.035636 295.488 
L 356.282182 294.942152 
L 359.528727 289.662139 
L 362.775273 278.670585 
L 366.021818 261.233562 
L 369.268364 237.037342 
L 372.514909 206.41127 
L 375.761455 170.603762 
L 379.008 132.119119 
L 382.254545 95.123538 
L 385.501091 65.929439 
L 388.747636 53.568 
L 391.994182 70.460604 
L 395.240727 133.200757 
L 398.487273 263.45893 
" style="fill:none;stroke:#1f77b4;stroke-linecap:square;stroke-width:1.5;"/>
   </g>
   <g id="line2d_12">
    <path clip-path="url(#p917e01eba0)" d="M 73.832727 263.45893 
L 77.079273 263.292539 
L 80.325818 263.116217 
L 83.572364 262.929172 
L 86.818909 262.73053 
L 90.065455 262.51933 
L 93.312 262.29451 
L 96.558545 262.054897 
L 99.805091 261.799189 
L 103.051636 261.525946 
L 106.298182 261.233562 
L 109.544727 260.92025 
L 112.791273 260.584016 
L 116.037818 260.222628 
L 119.284364 259.833585 
L 122.530909 259.414079 
L 125.777455 258.960946 
L 129.024 258.47062 
L 132.270545 257.939067 
L 135.517091 257.361716 
L 138.763636 256.733374 
L 142.010182 256.048132 
L 145.256727 255.299248 
L 148.503273 254.479014 
L 151.749818 253.578603 
L 154.996364 252.58788 
L 158.242909 251.4952 
L 161.489455 250.287158 
L 164.736 248.948312 
L 167.982545 247.460871 
L 171.229091 245.804345 
L 174.475636 243.955182 
L 177.722182 241.886392 
L 180.968727 239.567214 
L 184.215273 236.962884 
L 187.461818 234.034623 
L 190.708364 230.740009 
L 193.954909 227.034044 
L 197.201455 222.871302 
L 200.448 218.209785 
L 203.694545 213.01726 
L 206.941091 207.28103 
L 210.187636 201.021985 
L 213.434182 194.313219 
L 216.680727 187.3019 
L 219.927273 180.230175 
L 223.173818 173.446641 
L 226.420364 167.396087 
L 229.666909 162.575591 
L 232.913455 159.454201 
L 236.16 158.372119 
L 239.406545 159.454201 
L 242.653091 162.575591 
L 245.899636 167.396087 
L 249.146182 173.446641 
L 252.392727 180.230175 
L 255.639273 187.3019 
L 258.885818 194.313219 
L 262.132364 201.021985 
L 265.378909 207.28103 
L 268.625455 213.01726 
L 271.872 218.209785 
L 275.118545 222.871302 
L 278.365091 227.034044 
L 281.611636 230.740009 
L 284.858182 234.034623 
L 288.104727 236.962884 
L 291.351273 239.567214 
L 294.597818 241.886392 
L 297.844364 243.955182 
L 301.090909 245.804345 
L 304.337455 247.460871 
L 307.584 248.948312 
L 310.830545 250.287158 
L 314.077091 251.4952 
L 317.323636 252.58788 
L 320.570182 253.578603 
L 323.816727 254.479014 
L 327.063273 255.299248 
L 330.309818 256.048132 
L 333.556364 256.733374 
L 336.802909 257.361716 
L 340.049455 257.939067 
L 343.296 258.47062 
L 346.542545 258.960946 
L 349.789091 259.414079 
L 353.035636 259.833585 
L 356.282182 260.222628 
L 359.528727 260.584016 
L 362.775273 260.92025 
L 366.021818 261.233562 
L 369.268364 261.525946 
L 372.514909 261.799189 
L 375.761455 262.054897 
L 379.008 262.29451 
L 382.254545 262.51933 
L 385.501091 262.73053 
L 388.747636 262.929172 
L 391.994182 263.116217 
L 395.240727 263.292539 
L 398.487273 263.45893 
" style="fill:none;stroke:#ff7f0e;stroke-linecap:square;stroke-width:1.5;"/>
   </g>
   <g id="patch_3">
    <path d="M 57.6 307.584 
L 57.6 41.472 
" style="fill:none;stroke:#000000;stroke-linecap:square;stroke-linejoin:miter;stroke-width:0.8;"/>
   </g>
   <g id="patch_4">
    <path d="M 414.72 307.584 
L 414.72 41.472 
" style="fill:none;stroke:#000000;stroke-linecap:square;stroke-linejoin:miter;stroke-width:0.8;"/>
   </g>
   <g id="patch_5">
    <path d="M 57.6 307.584 
L 414.72 307.584 
" style="fill:none;stroke:#000000;stroke-linecap:square;stroke-linejoin:miter;stroke-width:0.8;"/>
   </g>
   <g id="patch_6">
    <path d="M 57.6 41.472 
L 414.72 41.472 
" style="fill:none;stroke:#000000;stroke-linecap:square;stroke-linejoin:miter;stroke-width:0.8;"/>
   </g>
  </g>
 </g>
 <defs>
  <clipPath id="p917e01eba0">
   <rect height="266.112" width="357.12" x="57.6" y="41.472"/>
  </clipPath>
 </defs>
</svg>
